# xmcd
#
# Track frame offsets: 
#        150
#        27290
#        44390
#        72795
#        91980
#        116742
#        134812
#        155282
#        179022
#        208720
#        238622
#
# Disc length: 3496 seconds
#
# Revision: 0
# Processed by: cddbd v1.5.2PL0 Copyright (c) Steve Scherf et al.
# Submitted via: ExactAudioCopy v0.95a5
#
DISCID=9d0da60b
DTITLE=戴佩妮 - 野蔷薇
DYEAR=2009
DGENRE=Pop
TTITLE0=看见听见
TTITLE1=不想
TTITLE2=水中央
TTITLE3=两难
TTITLE4=之间
TTITLE5=遗憾
TTITLE6=怎样
TTITLE7=街角的祝福
TTITLE8=单身潜逃+淡水河边+爱过
TTITLE9=爱疯了
TTITLE10=你是我的眼
EXTD=
EXTT0=
EXTT1=
EXTT2=
EXTT3=
EXTT4=
EXTT5=
EXTT6=
EXTT7=
EXTT8=
EXTT9=
EXTT10=
PLAYORDER=
